<svg xmlns="http://www.w3.org/2000/svg" width="197" height="256" viewBox="0 0 197 256" version="1.1"><path d="M 73.238 1.045 C 65.892 2.360, 56.311 5.679, 51.063 8.727 C 40.371 14.936, 33.031 25.003, 33.010 33.487 L 33 37.473 36.670 31.987 C 41.845 24.248, 51.594 14.992, 58.029 11.706 C 61.038 10.170, 62.389 9.720, 61.031 10.706 C 19.621 40.795, 15.083 87.246, 47.253 151.738 C 50.611 158.469, 53.504 163.829, 53.683 163.651 C 53.861 163.472, 53.140 156.840, 52.079 148.913 C 49.374 128.698, 48.444 114, 49.871 114 C 50.492 114, 51.048 115.013, 51.107 116.250 C 51.166 117.487, 51.623 116.475, 52.122 114 C 52.622 111.525, 53.747 106.695, 54.622 103.268 C 56.116 97.415, 56.435 96.974, 59.856 96.023 C 64.839 94.639, 65 94.680, 65 97.345 C 65 100.143, 67.866 103, 70.674 103 C 73.049 103, 76 100.048, 76 97.671 C 76 95.434, 77.178 95.566, 80.493 98.173 C 83.192 100.297, 83.230 100.299, 82.150 98.281 C 80.248 94.726, 75.014 91, 71.923 91 C 68.530 91, 68.365 90.383, 70.882 87.110 C 72.686 84.764, 72.842 84.744, 79.405 85.982 C 87.791 87.564, 88.955 86.718, 81.588 84.396 C 78.515 83.427, 76 82.332, 76 81.962 C 76 80.590, 109.888 50.802, 114.279 48.315 C 115.429 47.664, 117.341 45.522, 118.528 43.556 L 120.686 39.981 128.198 49.740 C 137.999 62.472, 142.218 69.198, 144.851 76.288 C 147.547 83.549, 147.545 83.574, 144.365 81.073 C 142.539 79.636, 140.272 79, 136.977 79 C 131.907 79, 116.503 83.068, 112.132 85.561 C 109.568 87.024, 109.616 87.046, 114 86.414 C 116.475 86.056, 122.325 84.629, 127 83.241 C 138.806 79.736, 140.051 79.640, 143.750 81.945 C 146.909 83.914, 147 84.164, 147 90.902 C 147 95.444, 147.418 97.973, 148.213 98.238 C 149.162 98.554, 149.159 101.663, 148.196 112.571 C 147.520 120.232, 146.992 127.850, 147.023 129.500 L 147.080 132.500 148.743 129.500 C 150.216 126.844, 150.455 126.729, 150.828 128.500 C 151.370 131.071, 158.077 114.121, 161.907 100.500 C 167.445 80.807, 168.331 64.676, 164.579 51.873 C 158.437 30.917, 132.165 9, 113.187 9 C 109.659 9, 107.833 8.472, 106.584 7.092 C 101.766 1.768, 85.585 -1.166, 73.238 1.045 M 68.677 75.815 C 65.642 78.983, 65.350 80, 67.474 80 C 68.869 80, 72.596 74.263, 71.751 73.418 C 71.533 73.199, 70.150 74.278, 68.677 75.815 M 60.450 87.099 C 59.028 89.904, 58.091 92.424, 58.366 92.699 C 58.641 92.974, 60.425 92.685, 62.330 92.056 C 65.162 91.122, 65.913 90.279, 66.445 87.439 C 67.798 80.230, 64.038 80.017, 60.450 87.099 M 119.385 93.227 C 116.071 95.784, 114.078 98.092, 114.032 99.424 C 114.014 99.933, 115.042 99.370, 116.314 98.174 C 118.569 96.056, 121.663 95.118, 120.573 96.882 C 119.755 98.205, 123.892 103, 125.850 103 C 128.768 103, 132 100.044, 132 97.376 C 132 95.456, 132.412 94.986, 133.750 95.379 C 138.526 96.782, 143.011 97.089, 144.668 96.126 C 146.364 95.140, 146.335 95.059, 144.287 95.030 C 143.070 95.014, 139.791 94.100, 137 93 C 130.079 90.272, 123.097 90.362, 119.385 93.227 M 71.543 94.931 C 71.226 95.443, 71.425 96.144, 71.984 96.490 C 72.543 96.835, 73 96.416, 73 95.559 C 73 93.802, 72.400 93.544, 71.543 94.931 M 123.543 94.931 C 123.226 95.443, 123.425 96.144, 123.984 96.490 C 124.543 96.835, 125 96.416, 125 95.559 C 125 93.802, 124.400 93.544, 123.543 94.931 M 86.632 140.021 L 82.765 141.768 86.632 144.406 C 91.526 147.743, 97.263 149.317, 101.334 148.439 C 105.303 147.583, 111.249 144.610, 112.849 142.682 C 113.857 141.468, 113.504 141.004, 110.782 139.963 C 105.459 137.927, 91.191 137.962, 86.632 140.021 M 90.500 142 C 91.600 142.473, 95.200 142.859, 98.500 142.859 C 101.800 142.859, 105.400 142.473, 106.500 142 C 107.792 141.445, 104.961 141.141, 98.500 141.141 C 92.039 141.141, 89.208 141.445, 90.500 142 M 32.712 206.141 C 18.013 208.959, 6.500 218.829, 1.551 232.856 L 0.037 237.147 7.401 240.549 C 24.614 248.502, 49.698 253.425, 81.671 255.124 C 112.168 256.744, 139.341 254.588, 164.500 248.551 C 181.536 244.463, 199.995 236.940, 197.349 235.163 C 196.806 234.798, 195.584 232.525, 194.634 230.111 C 188.476 214.476, 173.175 205, 154.089 205 C 149.416 205, 146.633 205.770, 139.888 208.929 C 126.255 215.315, 118.453 217.138, 102.232 217.731 C 82.983 218.435, 71.177 216.053, 55.775 208.359 C 48.542 204.746, 42.848 204.199, 32.712 206.141" stroke="none" fill="#711c14" fill-rule="evenodd"/><path d="M 0.024 118.250 L 0.047 236.500 2.354 230.892 C 7.988 217.197, 18.458 208.865, 33.536 206.078 C 43.749 204.190, 48.380 204.665, 55.775 208.359 C 71.177 216.053, 82.983 218.435, 102.232 217.731 C 118.453 217.138, 126.255 215.315, 139.888 208.929 C 146.633 205.770, 149.416 205, 154.089 205 C 173.530 205, 189.478 215.211, 195.090 231.250 C 195.811 233.312, 196.761 235, 197.201 235 C 197.640 235, 198 182.125, 198 117.500 L 198 0 143.750 0.110 C 112.368 0.173, 91.252 0.566, 93.656 1.041 C 98.478 1.995, 105.056 5.158, 106.939 7.427 C 107.802 8.467, 109.909 9, 113.154 9 C 132.165 9, 158.432 30.898, 164.579 51.873 C 168.331 64.676, 167.445 80.807, 161.907 100.500 C 158.077 114.121, 151.370 131.071, 150.828 128.500 C 150.455 126.729, 150.216 126.844, 148.743 129.500 L 147.080 132.500 147.023 129.500 C 146.992 127.850, 147.520 120.232, 148.196 112.571 C 149.159 101.663, 149.162 98.554, 148.213 98.238 C 147.418 97.973, 147 95.444, 147 90.902 C 147 84.164, 146.909 83.914, 143.750 81.945 C 140.051 79.640, 138.806 79.736, 127 83.241 C 122.325 84.629, 116.475 86.056, 114 86.414 C 109.616 87.046, 109.568 87.024, 112.132 85.561 C 116.503 83.068, 131.907 79, 136.977 79 C 140.272 79, 142.539 79.636, 144.365 81.073 C 147.545 83.574, 147.547 83.549, 144.851 76.288 C 142.218 69.198, 137.999 62.472, 128.198 49.740 L 120.686 39.981 118.528 43.556 C 117.341 45.522, 115.429 47.664, 114.279 48.315 C 109.888 50.802, 76 80.590, 76 81.962 C 76 82.332, 78.515 83.427, 81.588 84.396 C 88.955 86.718, 87.791 87.564, 79.405 85.982 C 72.842 84.744, 72.686 84.764, 70.882 87.110 C 68.365 90.383, 68.530 91, 71.923 91 C 75.014 91, 80.248 94.726, 82.150 98.281 C 83.230 100.299, 83.192 100.297, 80.493 98.173 C 77.115 95.516, 76 95.435, 76 97.845 C 76 100.209, 72.928 103, 70.326 103 C 67.757 103, 65 99.983, 65 97.171 C 65 94.691, 64.808 94.648, 59.856 96.023 C 56.435 96.974, 56.116 97.415, 54.622 103.268 C 53.747 106.695, 52.622 111.525, 52.122 114 C 51.623 116.475, 51.166 117.487, 51.107 116.250 C 51.048 115.013, 50.492 114, 49.871 114 C 48.444 114, 49.374 128.698, 52.079 148.913 C 53.140 156.840, 53.861 163.472, 53.683 163.651 C 53.154 164.180, 41.408 140.156, 38.081 131.741 C 24.091 96.354, 22.504 65.296, 33.515 42.401 C 39.349 30.272, 48.312 19.948, 61.031 10.706 C 62.389 9.720, 61.038 10.170, 58.029 11.706 C 51.594 14.992, 41.845 24.248, 36.670 31.987 L 33 37.473 33.010 33.487 C 33.045 19.086, 50.719 4.862, 73.238 1.110 C 76.750 0.525, 65.449 0.195, 39.250 0.117 L 0 0 0.024 118.250 M 0.484 118.500 C 0.484 183.400, 0.604 209.803, 0.750 177.173 C 0.896 144.543, 0.896 91.443, 0.750 59.173 C 0.603 26.903, 0.484 53.600, 0.484 118.500 M 68.677 75.815 C 65.642 78.983, 65.350 80, 67.474 80 C 68.869 80, 72.596 74.263, 71.751 73.418 C 71.533 73.199, 70.150 74.278, 68.677 75.815 M 60.450 87.099 C 59.028 89.904, 58.091 92.424, 58.366 92.699 C 58.641 92.974, 60.425 92.685, 62.330 92.056 C 65.162 91.122, 65.913 90.279, 66.445 87.439 C 67.798 80.230, 64.038 80.017, 60.450 87.099 M 119.385 93.227 C 116.071 95.784, 114.078 98.092, 114.032 99.424 C 114.014 99.933, 115.042 99.370, 116.314 98.174 C 118.569 96.056, 121.663 95.118, 120.573 96.882 C 119.755 98.205, 123.892 103, 125.850 103 C 128.768 103, 132 100.044, 132 97.376 C 132 95.456, 132.412 94.986, 133.750 95.379 C 138.526 96.782, 143.011 97.089, 144.668 96.126 C 146.364 95.140, 146.335 95.059, 144.287 95.030 C 143.070 95.014, 139.791 94.100, 137 93 C 130.079 90.272, 123.097 90.362, 119.385 93.227 M 71.543 94.931 C 71.226 95.443, 71.425 96.144, 71.984 96.490 C 72.543 96.835, 73 96.416, 73 95.559 C 73 93.802, 72.400 93.544, 71.543 94.931 M 123.543 94.931 C 123.226 95.443, 123.425 96.144, 123.984 96.490 C 124.543 96.835, 125 96.416, 125 95.559 C 125 93.802, 124.400 93.544, 123.543 94.931 M 86.632 140.021 L 82.765 141.768 86.632 144.406 C 91.526 147.743, 97.263 149.317, 101.334 148.439 C 105.303 147.583, 111.249 144.610, 112.849 142.682 C 113.857 141.468, 113.504 141.004, 110.782 139.963 C 105.459 137.927, 91.191 137.962, 86.632 140.021 M 90.500 142 C 91.600 142.473, 95.200 142.859, 98.500 142.859 C 101.800 142.859, 105.400 142.473, 106.500 142 C 107.792 141.445, 104.961 141.141, 98.500 141.141 C 92.039 141.141, 89.208 141.445, 90.500 142 M 0 246.565 L 0 256 44.750 255.853 C 80.475 255.736, 86.594 255.540, 75.090 254.881 C 49.748 253.431, 23.024 247.768, 7.349 240.526 L 0 237.130 0 246.565 M 193 238.933 C 179.067 246.278, 145.968 253.558, 118.500 255.319 C 115.750 255.495, 132.287 255.721, 155.250 255.820 L 197 256 197 246.500 C 197 241.275, 196.887 237.020, 196.750 237.044 C 196.613 237.069, 194.925 237.919, 193 238.933" stroke="none" fill="#f9e3d8" fill-rule="evenodd"/></svg>