<svg xmlns="http://www.w3.org/2000/svg" width="246" height="205" viewBox="0 0 246 205" version="1.1"><path d="M 84.286 59.938 C 76.233 61.251, 72.719 66.951, 71.178 81.202 C 70.282 89.488, 69.536 92.030, 66.065 98.619 C 63.361 103.751, 62 107.617, 62 110.167 L 62 114 53.559 114 C 48.916 114, 44.915 114.338, 44.667 114.750 C 44.419 115.162, 44.824 122.025, 45.567 130 C 46.310 137.975, 46.936 144.838, 46.959 145.250 C 46.981 145.662, 53.750 146, 62 146 C 79.653 146, 78.360 147.759, 74.403 129.124 C 73.993 127.190, 74.220 126.870, 75.622 127.409 C 78.508 128.516, 87.819 126.023, 91.096 123.266 C 95.226 119.791, 96.021 117.322, 96.974 105 C 97.504 98.155, 98.695 91.828, 100.394 86.824 C 103.494 77.691, 103.921 67.760, 101.369 64.117 C 98.299 59.733, 93.195 58.485, 84.286 59.938 M 110 90.309 C 110 103.101, 110.317 107.036, 111.468 108.559 C 112.777 110.290, 112.940 108.576, 112.968 92.750 L 113 75 150.500 75 L 188 75 188 97.500 L 188 120 152.250 120.216 C 132.588 120.335, 122.013 120.574, 128.750 120.747 L 141 121.062 141 125.906 C 141 130.449, 141.180 130.786, 143.895 131.329 C 145.488 131.648, 148.423 131.643, 150.418 131.320 C 154.228 130.701, 158 132.858, 158 135.655 C 158 137.029, 164.046 137.620, 165.298 136.369 C 166.578 135.089, 163.867 132, 161.465 132 C 159.144 132, 159 131.679, 159 126.500 L 159 121 174.500 121 L 190 121 190 97.500 L 190 74 150 74 L 110 74 110 90.309 M 123 81.500 C 123 82.333, 123.889 83, 125 83 C 126.111 83, 127 82.333, 127 81.500 C 127 80.667, 126.111 80, 125 80 C 123.889 80, 123 80.667, 123 81.500 M 123 89.500 C 123 90.333, 123.889 91, 125 91 C 126.111 91, 127 90.333, 127 89.500 C 127 88.667, 126.111 88, 125 88 C 123.889 88, 123 88.667, 123 89.500 M 123 97.500 C 123 98.333, 123.889 99, 125 99 C 126.111 99, 127 98.333, 127 97.500 C 127 96.667, 126.111 96, 125 96 C 123.889 96, 123 96.667, 123 97.500 M 123 105.500 C 123 106.333, 123.889 107, 125 107 C 126.111 107, 127 106.333, 127 105.500 C 127 104.667, 126.111 104, 125 104 C 123.889 104, 123 104.667, 123 105.500 M 123 113.500 C 123 114.333, 123.889 115, 125 115 C 126.111 115, 127 114.333, 127 113.500 C 127 112.667, 126.111 112, 125 112 C 123.889 112, 123 112.667, 123 113.500 M 106 132.418 C 106 133.198, 105.727 134.548, 105.393 135.418 C 104.908 136.683, 105.520 137, 108.450 137 L 112.113 137 110.341 134 C 108.495 130.874, 106 129.965, 106 132.418" stroke="none" fill="#4e516a" fill-rule="evenodd"/><path d="M 0 102.504 L 0 205.008 123.250 204.754 L 246.500 204.500 246.755 102.250 L 247.009 0 123.505 0 L 0 0 0 102.504 M 0.481 103 C 0.481 159.375, 0.602 182.437, 0.750 154.250 C 0.897 126.062, 0.897 79.937, 0.750 51.750 C 0.602 23.562, 0.481 46.625, 0.481 103 M 84.286 59.938 C 76.233 61.251, 72.719 66.951, 71.178 81.202 C 70.282 89.488, 69.536 92.030, 66.065 98.619 C 63.361 103.751, 62 107.617, 62 110.167 L 62 114 53.559 114 C 48.916 114, 44.915 114.338, 44.667 114.750 C 44.419 115.162, 44.824 122.025, 45.567 130 C 46.310 137.975, 46.936 144.838, 46.959 145.250 C 46.981 145.662, 53.750 146, 62 146 C 79.653 146, 78.360 147.759, 74.403 129.124 C 73.993 127.190, 74.220 126.870, 75.622 127.409 C 78.508 128.516, 87.819 126.023, 91.096 123.266 C 95.226 119.791, 96.021 117.322, 96.974 105 C 97.504 98.155, 98.695 91.828, 100.394 86.824 C 103.494 77.691, 103.921 67.760, 101.369 64.117 C 98.299 59.733, 93.195 58.485, 84.286 59.938 M 110 90.309 C 110 103.101, 110.317 107.036, 111.468 108.559 C 112.777 110.290, 112.940 108.576, 112.968 92.750 L 113 75 150.500 75 L 188 75 188 97.500 L 188 120 152.250 120.216 C 132.588 120.335, 122.013 120.574, 128.750 120.747 L 141 121.062 141 125.906 C 141 130.449, 141.180 130.786, 143.895 131.329 C 145.488 131.648, 148.423 131.643, 150.418 131.320 C 154.228 130.701, 158 132.858, 158 135.655 C 158 137.029, 164.046 137.620, 165.298 136.369 C 166.578 135.089, 163.867 132, 161.465 132 C 159.144 132, 159 131.679, 159 126.500 L 159 121 174.500 121 L 190 121 190 97.500 L 190 74 150 74 L 110 74 110 90.309 M 123 81.500 C 123 82.333, 123.889 83, 125 83 C 126.111 83, 127 82.333, 127 81.500 C 127 80.667, 126.111 80, 125 80 C 123.889 80, 123 80.667, 123 81.500 M 123 89.500 C 123 90.333, 123.889 91, 125 91 C 126.111 91, 127 90.333, 127 89.500 C 127 88.667, 126.111 88, 125 88 C 123.889 88, 123 88.667, 123 89.500 M 123 97.500 C 123 98.333, 123.889 99, 125 99 C 126.111 99, 127 98.333, 127 97.500 C 127 96.667, 126.111 96, 125 96 C 123.889 96, 123 96.667, 123 97.500 M 123 105.500 C 123 106.333, 123.889 107, 125 107 C 126.111 107, 127 106.333, 127 105.500 C 127 104.667, 126.111 104, 125 104 C 123.889 104, 123 104.667, 123 105.500 M 123 113.500 C 123 114.333, 123.889 115, 125 115 C 126.111 115, 127 114.333, 127 113.500 C 127 112.667, 126.111 112, 125 112 C 123.889 112, 123 112.667, 123 113.500 M 106 132.418 C 106 133.198, 105.727 134.548, 105.393 135.418 C 104.908 136.683, 105.520 137, 108.450 137 L 112.113 137 110.341 134 C 108.495 130.874, 106 129.965, 106 132.418" stroke="none" fill="#f8f7f7" fill-rule="evenodd"/></svg>