<svg xmlns="http://www.w3.org/2000/svg" width="300" height="168" viewBox="0 0 300 168" version="1.1"><path d="M 135.361 25.806 C 132.046 27.163, 131.481 27.740, 132.521 28.705 C 133.544 29.655, 133.950 29.573, 134.431 28.319 C 134.973 26.906, 135.275 26.939, 137.121 28.610 C 139.162 30.456, 139.194 30.454, 138.850 28.496 C 138.597 27.053, 139.124 26.411, 140.750 26.180 C 142.070 25.993, 143 26.386, 143 27.130 C 143 28.118, 143.267 28.133, 144.200 27.200 C 145.662 25.738, 157.625 25.584, 158.510 27.016 C 158.856 27.575, 159.591 27.753, 160.145 27.410 C 160.699 27.068, 162.918 28.207, 165.076 29.941 C 167.234 31.675, 169 32.633, 169 32.070 C 169 31.507, 167.861 30.300, 166.469 29.388 C 162.910 27.056, 163.933 26.715, 169.094 28.514 C 176.787 31.196, 180.095 33.089, 180.997 35.325 L 181.873 37.500 181.937 35.267 C 182.016 32.486, 175.863 29.174, 164.936 26.117 C 155.398 23.448, 141.480 23.301, 135.361 25.806 M 141 32 C 141 32.550, 141.450 33, 142 33 C 142.550 33, 143 32.550, 143 32 C 143 31.450, 142.550 31, 142 31 C 141.450 31, 141 31.450, 141 32 M 186.638 37.500 C 186.955 38.325, 187.671 39, 188.229 39 C 188.815 39, 188.718 38.365, 188 37.500 C 187.315 36.675, 186.599 36, 186.409 36 C 186.219 36, 186.322 36.675, 186.638 37.500 M 140.158 74 C 140.158 75.375, 140.385 75.938, 140.662 75.250 C 140.940 74.563, 140.940 73.438, 140.662 72.750 C 140.385 72.063, 140.158 72.625, 140.158 74 M 209.195 79.500 C 209.215 81.150, 209.439 81.704, 209.693 80.731 C 209.947 79.758, 209.930 78.408, 209.656 77.731 C 209.382 77.054, 209.175 77.850, 209.195 79.500 M 159.667 104.667 C 159.300 105.033, 159.029 106.271, 159.063 107.417 C 159.122 109.332, 159.204 109.307, 160.085 107.105 C 161.064 104.657, 160.861 103.472, 159.667 104.667 M 144.354 108.488 C 143.310 110.739, 143.373 110.871, 145.066 109.964 C 146.141 109.389, 146.685 108.343, 146.356 107.485 C 145.634 105.603, 145.708 105.566, 144.354 108.488 M 97 112.845 C 97 113.310, 97.970 114.547, 99.155 115.595 L 101.310 117.500 99.540 114.750 C 97.715 111.914, 97 111.378, 97 112.845 M 104.573 120.521 C 103.513 121.323, 103.012 122.321, 103.460 122.740 C 103.908 123.158, 104.475 122.938, 104.720 122.250 C 104.966 121.563, 105.778 121, 106.524 121 C 107.271 121, 108.160 120.550, 108.500 120 C 109.425 118.503, 106.776 118.855, 104.573 120.521 M 191.882 122.750 C 191.816 123.162, 191.832 123.885, 191.917 124.355 C 192.001 124.826, 191.541 125.848, 190.894 126.628 C 189.944 127.772, 190.034 127.924, 191.359 127.416 C 192.261 127.069, 193 125.709, 193 124.393 C 193 122.208, 192.162 120.976, 191.882 122.750 M 153.624 126.539 C 152.659 129.053, 152.943 129.702, 154.122 127.675 C 154.706 126.671, 154.973 125.639, 154.715 125.382 C 154.458 125.124, 153.966 125.645, 153.624 126.539 M 130.500 127 C 130.160 127.550, 130.610 128, 131.500 128 C 132.390 128, 132.840 127.550, 132.500 127 C 132.160 126.450, 131.710 126, 131.500 126 C 131.290 126, 130.840 126.450, 130.500 127 M 115.309 129.636 C 114.590 131.512, 115.983 134.161, 118.054 134.851 C 119.020 135.173, 118.919 134.776, 117.732 133.589 C 115.683 131.540, 115.594 130.806, 117.200 129.200 C 118.133 128.267, 118.126 128, 117.169 128 C 116.491 128, 115.655 128.736, 115.309 129.636 M 149.638 131.500 C 149.955 132.325, 150.391 133, 150.607 133 C 150.823 133, 151 132.325, 151 131.500 C 151 130.675, 150.564 130, 150.031 130 C 149.499 130, 149.322 130.675, 149.638 131.500 M 183 131.646 L 180.500 132.971 183.191 132.985 C 184.671 132.993, 186.141 132.581, 186.457 132.069 C 187.439 130.481, 185.620 130.259, 183 131.646 M 171.269 132.693 C 172.242 132.947, 173.592 132.930, 174.269 132.656 C 174.946 132.382, 174.150 132.175, 172.500 132.195 C 170.850 132.215, 170.296 132.439, 171.269 132.693 M 150.736 135.332 C 150.331 136.339, 150 137.974, 150 138.965 C 150 139.956, 149.157 140.987, 148.127 141.257 C 146.686 141.633, 146.367 141.314, 146.743 139.873 C 147.139 138.360, 146.683 138.006, 144.367 138.030 C 141.914 138.056, 141.756 138.210, 143.271 139.092 C 145.420 140.343, 144.629 142, 141.882 142 C 140.623 142, 140.147 141.572, 140.596 140.844 C 141.107 140.018, 140.414 139.867, 138.172 140.316 C 135.387 140.873, 131.925 139.814, 124.750 136.210 C 124.338 136.003, 124 136.238, 124 136.733 C 124 138.659, 132.475 142.245, 140.229 143.599 C 148.781 145.092, 155.060 144.766, 163.500 142.392 C 173.822 139.488, 184.612 134, 180 134 C 179.450 134, 179 134.433, 179 134.961 C 179 135.490, 176.863 136.573, 174.250 137.369 C 171.637 138.165, 167.827 139.532, 165.782 140.408 C 161.731 142.143, 158.570 142.505, 159.415 141.138 C 159.707 140.664, 158.273 140.327, 156.227 140.388 C 152.714 140.494, 152.479 140.306, 151.990 137 C 151.586 134.268, 151.311 133.902, 150.736 135.332" stroke="none" fill="#6da8b8" fill-rule="evenodd"/><path d="M 0 84.003 L 0 168.006 150.250 167.753 L 300.500 167.500 300.756 83.750 L 301.011 -0 150.506 -0 L 0 0 0 84.003 M 0.478 84.500 C 0.478 130.700, 0.600 149.454, 0.750 126.175 C 0.899 102.896, 0.899 65.096, 0.750 42.175 C 0.600 19.254, 0.478 38.300, 0.478 84.500 M 135.361 25.806 C 132.046 27.163, 131.481 27.740, 132.521 28.705 C 133.544 29.655, 133.950 29.573, 134.431 28.319 C 134.973 26.906, 135.275 26.939, 137.121 28.610 C 139.162 30.456, 139.194 30.454, 138.850 28.496 C 138.597 27.053, 139.124 26.411, 140.750 26.180 C 142.070 25.993, 143 26.386, 143 27.130 C 143 28.118, 143.267 28.133, 144.200 27.200 C 145.662 25.738, 157.625 25.584, 158.510 27.016 C 158.856 27.575, 159.591 27.753, 160.145 27.410 C 160.699 27.068, 162.918 28.207, 165.076 29.941 C 167.234 31.675, 169 32.633, 169 32.070 C 169 31.507, 167.861 30.300, 166.469 29.388 C 162.910 27.056, 163.933 26.715, 169.094 28.514 C 176.787 31.196, 180.095 33.089, 180.997 35.325 L 181.873 37.500 181.937 35.267 C 182.016 32.486, 175.863 29.174, 164.936 26.117 C 155.398 23.448, 141.480 23.301, 135.361 25.806 M 141 32 C 141 32.550, 141.450 33, 142 33 C 142.550 33, 143 32.550, 143 32 C 143 31.450, 142.550 31, 142 31 C 141.450 31, 141 31.450, 141 32 M 186.638 37.500 C 186.955 38.325, 187.671 39, 188.229 39 C 188.815 39, 188.718 38.365, 188 37.500 C 187.315 36.675, 186.599 36, 186.409 36 C 186.219 36, 186.322 36.675, 186.638 37.500 M 140.158 74 C 140.158 75.375, 140.385 75.938, 140.662 75.250 C 140.940 74.563, 140.940 73.438, 140.662 72.750 C 140.385 72.063, 140.158 72.625, 140.158 74 M 209.195 79.500 C 209.215 81.150, 209.439 81.704, 209.693 80.731 C 209.947 79.758, 209.930 78.408, 209.656 77.731 C 209.382 77.054, 209.175 77.850, 209.195 79.500 M 159.667 104.667 C 159.300 105.033, 159.029 106.271, 159.063 107.417 C 159.122 109.332, 159.204 109.307, 160.085 107.105 C 161.064 104.657, 160.861 103.472, 159.667 104.667 M 144.354 108.488 C 143.310 110.739, 143.373 110.871, 145.066 109.964 C 146.141 109.389, 146.685 108.343, 146.356 107.485 C 145.634 105.603, 145.708 105.566, 144.354 108.488 M 97 112.845 C 97 113.310, 97.970 114.547, 99.155 115.595 L 101.310 117.500 99.540 114.750 C 97.715 111.914, 97 111.378, 97 112.845 M 104.573 120.521 C 103.513 121.323, 103.012 122.321, 103.460 122.740 C 103.908 123.158, 104.475 122.938, 104.720 122.250 C 104.966 121.563, 105.778 121, 106.524 121 C 107.271 121, 108.160 120.550, 108.500 120 C 109.425 118.503, 106.776 118.855, 104.573 120.521 M 191.882 122.750 C 191.816 123.162, 191.832 123.885, 191.917 124.355 C 192.001 124.826, 191.541 125.848, 190.894 126.628 C 189.944 127.772, 190.034 127.924, 191.359 127.416 C 192.261 127.069, 193 125.709, 193 124.393 C 193 122.208, 192.162 120.976, 191.882 122.750 M 153.624 126.539 C 152.659 129.053, 152.943 129.702, 154.122 127.675 C 154.706 126.671, 154.973 125.639, 154.715 125.382 C 154.458 125.124, 153.966 125.645, 153.624 126.539 M 130.500 127 C 130.160 127.550, 130.610 128, 131.500 128 C 132.390 128, 132.840 127.550, 132.500 127 C 132.160 126.450, 131.710 126, 131.500 126 C 131.290 126, 130.840 126.450, 130.500 127 M 115.309 129.636 C 114.590 131.512, 115.983 134.161, 118.054 134.851 C 119.020 135.173, 118.919 134.776, 117.732 133.589 C 115.683 131.540, 115.594 130.806, 117.200 129.200 C 118.133 128.267, 118.126 128, 117.169 128 C 116.491 128, 115.655 128.736, 115.309 129.636 M 149.638 131.500 C 149.955 132.325, 150.391 133, 150.607 133 C 150.823 133, 151 132.325, 151 131.500 C 151 130.675, 150.564 130, 150.031 130 C 149.499 130, 149.322 130.675, 149.638 131.500 M 183 131.646 L 180.500 132.971 183.191 132.985 C 184.671 132.993, 186.141 132.581, 186.457 132.069 C 187.439 130.481, 185.620 130.259, 183 131.646 M 171.269 132.693 C 172.242 132.947, 173.592 132.930, 174.269 132.656 C 174.946 132.382, 174.150 132.175, 172.500 132.195 C 170.850 132.215, 170.296 132.439, 171.269 132.693 M 150.736 135.332 C 150.331 136.339, 150 137.974, 150 138.965 C 150 139.956, 149.157 140.987, 148.127 141.257 C 146.686 141.633, 146.367 141.314, 146.743 139.873 C 147.139 138.360, 146.683 138.006, 144.367 138.030 C 141.914 138.056, 141.756 138.210, 143.271 139.092 C 145.420 140.343, 144.629 142, 141.882 142 C 140.623 142, 140.147 141.572, 140.596 140.844 C 141.107 140.018, 140.414 139.867, 138.172 140.316 C 135.387 140.873, 131.925 139.814, 124.750 136.210 C 124.338 136.003, 124 136.238, 124 136.733 C 124 138.659, 132.475 142.245, 140.229 143.599 C 148.781 145.092, 155.060 144.766, 163.500 142.392 C 173.822 139.488, 184.612 134, 180 134 C 179.450 134, 179 134.433, 179 134.961 C 179 135.490, 176.863 136.573, 174.250 137.369 C 171.637 138.165, 167.827 139.532, 165.782 140.408 C 161.731 142.143, 158.570 142.505, 159.415 141.138 C 159.707 140.664, 158.273 140.327, 156.227 140.388 C 152.714 140.494, 152.479 140.306, 151.990 137 C 151.586 134.268, 151.311 133.902, 150.736 135.332" stroke="none" fill="#081b28" fill-rule="evenodd"/></svg>